<svg width="1394" height="611" viewBox="0 0 1394 611" fill="none" xmlns="http://www.w3.org/2000/svg">
<path d="M521.889 10.3079C297.984 43.2608 151.669 132.324 13.5946 207.912C-7.24096 219.236 -28.232 230.9 -50.0005 242.507V362.598C2.55486 328.343 48.4242 292.503 92.1167 261.418C213.087 175.355 338.878 77.4027 561.072 31.9934C782.333 -13.2461 1048.53 46.9411 1254.24 91.6144C1255.18 91.8408 1256.11 92.0107 1257.04 92.2372C1252.22 91.1048 1247.25 89.9157 1242.43 88.84C1028.94 39.0709 762.431 -25.0797 521.889 10.3079Z" fill="#1C56B6"/>
<path d="M874.205 39.9917C773.9 29.8044 670.728 35.2376 580.679 57.4232C367.699 109.944 256.382 214.307 148.082 305.539C96.3456 349.288 42.0447 403.733 -28.6973 451.387V610.081C102.379 543.977 163.92 439.105 228.779 366.04C319.281 264.168 410.235 146.448 620.349 80.6275C695.314 57.1968 782.95 47.2925 875.111 51.99C996.081 58.1589 1116.3 87.4756 1230.18 109.605C1282.67 119.848 1337.57 131.168 1393.99 141.694C1341.04 130.828 1289.76 119.282 1241.04 108.812C1121.43 83.1743 999.701 52.7257 874.205 39.9917Z" fill="#1C56B6"/>
</svg>
