<svg width="1563" height="574" viewBox="0 0 1563 574" fill="none" xmlns="http://www.w3.org/2000/svg">
<mask id="mask0_766_2420" style="mask-type:alpha" maskUnits="userSpaceOnUse" x="0" y="0" width="1563" height="574">
<rect y="0.767334" width="1562.77" height="573.233" rx="16" fill="#C4C4C4"/>
</mask>
<g mask="url(#mask0_766_2420)">
<path fill-rule="evenodd" clip-rule="evenodd" d="M539.869 24.1118C982.319 24.1118 1341 134.668 1341 271.17C1341 407.673 982.319 518.229 539.869 518.229C331.745 518.605 142.44 494.162 0 453.926C130.262 480.625 289.308 496.419 460.9 496.419C903.349 496.419 1262.03 392.255 1262.03 263.65C1262.03 135.044 903.349 30.8805 460.9 30.8805C402.596 30.8805 345.767 32.7607 291.153 36.1451C369.384 28.2483 452.782 24.1118 539.869 24.1118Z" fill="#1C56B6"/>
<path fill-rule="evenodd" clip-rule="evenodd" d="M646.045 15.033C1133 15.033 1527.76 136.615 1527.76 286.733C1527.76 436.85 1133 558.432 646.045 558.432C416.988 558.846 208.642 531.965 51.876 487.716C195.24 517.078 370.283 534.446 559.133 534.446C1046.08 534.446 1440.84 419.894 1440.84 278.462C1440.84 137.029 1046.08 22.4768 559.133 22.4768C494.965 22.4768 432.421 24.5445 372.313 28.2664C458.413 19.582 550.199 15.033 646.045 15.033Z" fill="#1C56B6"/>
</g>
</svg>
