<svg width="32" height="32" viewBox="0 0 32 32" fill="none" xmlns="http://www.w3.org/2000/svg">
<path d="M26.533 11.6001C26.533 11.3334 26.3997 11.2001 26.2663 11.0667L18.2663 3.06675C18.133 2.93341 17.9997 2.93341 17.8663 2.80008H17.733C17.733 2.80008 17.5997 2.66675 17.4663 2.66675H9.33301C7.06634 2.66675 5.33301 4.40008 5.33301 6.66675V25.3334C5.33301 27.6001 7.06634 29.3334 9.33301 29.3334H22.6663C24.933 29.3334 26.6663 27.6001 26.6663 25.3334V12.0001C26.6663 12.0001 26.6663 12.0001 26.6663 11.8667C26.6663 11.7334 26.6663 11.7334 26.533 11.6001ZM18.6663 7.20008L22.133 10.6667H19.9997C19.1997 10.6667 18.6663 10.1334 18.6663 9.33341V7.20008ZM23.9997 25.3334C23.9997 26.1334 23.4663 26.6667 22.6663 26.6667H9.33301C8.53301 26.6667 7.99967 26.1334 7.99967 25.3334V6.66675C7.99967 5.86675 8.53301 5.33341 9.33301 5.33341H15.9997V9.33341C15.9997 11.6001 17.733 13.3334 19.9997 13.3334H23.9997V25.3334Z" fill="#1C56B6"/>
<path d="M9.59961 16.9334C9.99961 16.8 10.3996 16.8 11.1996 16.8C11.8663 16.8 12.3996 16.9334 12.7996 17.3334C13.0663 17.7334 13.3329 18.2667 13.3329 18.9334C13.3329 19.6 13.1996 20.1334 12.7996 20.5334C12.3996 21.0667 11.7329 21.3334 11.0663 21.3334C10.9329 21.3334 10.7996 21.3334 10.6663 21.3334V23.7334H9.59961V16.9334ZM10.6663 20C10.7996 20 10.9329 20 11.0663 20C11.7329 20 11.9996 19.6 11.9996 18.9334C11.9996 18.2667 11.7329 18 11.0663 18C10.7996 18 10.6663 18 10.5329 18V20H10.6663Z" fill="#1C56B6"/>
<path d="M14 16.9334C14.4 16.8 14.9333 16.8 15.6 16.8C16.5333 16.8 17.2 17.0667 17.7333 17.4667C18.2667 18 18.6667 18.8 18.6667 20C18.6667 21.3334 18.2667 22.2667 17.8667 22.8C17.3333 23.3334 16.5333 23.7334 15.4667 23.7334C14.8 23.7334 14.4 23.7334 14.1333 23.6V16.9334H14ZM15.2 22.5334C15.3333 22.5334 15.4667 22.5334 15.6 22.5334C16.6667 22.5334 17.3333 21.7334 17.3333 20.1334C17.3333 18.6667 16.6667 18 15.7333 18C15.4667 18 15.3333 18 15.2 18V22.5334Z" fill="#1C56B6"/>
<path d="M19.333 16.9333H22.533V18.1334H20.533V19.7334H22.3997V20.9333H20.533V23.7333H19.333V16.9333Z" fill="#1C56B6"/>
</svg>
