<svg width="43" height="43" viewBox="0 0 43 43" fill="none" xmlns="http://www.w3.org/2000/svg">
<path d="M38.605 6.96281L22.1441 0.128417C21.7317 -0.0427433 21.2682 -0.0428273 20.8559 0.128417L4.39499 6.96281C3.76804 7.22317 3.35938 7.83524 3.35938 8.51409V16.8222C3.35938 28.262 10.2737 38.5524 20.8652 42.8755C21.2721 43.0415 21.7278 43.0415 22.1348 42.8755C32.7261 38.5524 39.6406 28.2621 39.6406 16.8222V8.51409C39.6406 7.83524 39.232 7.22317 38.605 6.96281ZM36.2812 16.8222C36.2812 26.5472 30.5703 35.4997 21.5 39.4958C12.6721 35.6064 6.71875 26.8108 6.71875 16.8222V9.63545L21.5 3.49837L36.2812 9.63545V16.8222ZM19.6434 22.484L26.8631 15.2644C27.519 14.6085 28.5825 14.6084 29.2385 15.2644C29.8945 15.9204 29.8944 16.9839 29.2384 17.6398L20.8311 26.0471C20.1751 26.7032 19.1116 26.7029 18.4557 26.0471L13.7615 21.3529C13.1055 20.6969 13.1055 19.6334 13.7615 18.9775C14.4175 18.3215 15.481 18.3214 16.1369 18.9775L19.6434 22.484Z" fill="#1C56B6"/>
</svg>
