<svg width="43" height="43" viewBox="0 0 43 43" fill="none" xmlns="http://www.w3.org/2000/svg">
<g clip-path="url(#clip0_470_1985)">
<path d="M36.7029 6.29706C32.6421 2.23642 27.243 0 21.5002 0C20.5725 0 19.8205 0.751996 19.8205 1.67969C19.8205 2.60738 20.5725 3.35938 21.5002 3.35938C26.3457 3.35938 30.9011 5.24634 34.3275 8.67256C37.7537 12.099 39.6406 16.6544 39.6406 21.4998C39.6406 22.4275 40.3926 23.1795 41.3203 23.1795C42.248 23.1795 43 22.4275 43 21.4998C43 15.7571 40.7637 10.358 36.7029 6.29706Z" fill="#1C56B6"/>
<path d="M27.5125 24.5139C26.8566 23.8579 25.7931 23.8579 25.1371 24.5139L22.7302 26.9209C20.0915 25.2532 17.7468 22.9085 16.0791 20.2698L18.4861 17.8629C19.1419 17.207 19.1417 16.143 18.4861 15.4874L8.98441 5.98556C8.66947 5.67062 8.24216 5.49367 7.7967 5.49367C7.35125 5.49367 6.92394 5.67062 6.609 5.98565L1.2319 11.3628C0.24231 12.3524 -0.189286 13.7597 0.0774488 15.1272C2.62134 28.1695 14.8306 40.3787 27.8728 42.9226C29.2357 43.1885 30.6446 42.7608 31.6371 41.7683L37.0143 36.3911C37.3293 36.0761 37.5063 35.6488 37.5063 35.2033C37.5063 34.7578 37.3292 34.3305 37.0143 34.0155L27.5125 24.5139ZM29.2617 39.3927C29.0636 39.5909 28.7848 39.6777 28.5159 39.6254C16.7965 37.3396 5.65939 26.1979 3.37451 14.4841C3.3221 14.2153 3.40911 13.9364 3.60714 13.7385L3.60723 13.7383L7.7967 9.54877L14.9229 16.6749L12.785 18.8128C12.2579 19.3398 12.1412 20.1512 12.4983 20.8054C14.7064 24.8501 18.1498 28.2934 22.1944 30.5014C22.8486 30.8587 23.66 30.7418 24.1869 30.2149L26.3248 28.077L33.4511 35.2032L29.2617 39.3927Z" fill="#1C56B6"/>
</g>
<defs>
<clipPath id="clip0_470_1985">
<rect width="43" height="43" fill="white"/>
</clipPath>
</defs>
</svg>
