<svg width="43" height="43" viewBox="0 0 43 43" fill="none" xmlns="http://www.w3.org/2000/svg">
<path d="M24.6914 25.2793H18.3086C17.3809 25.2793 16.6289 26.0313 16.6289 26.959C16.6289 27.8867 17.3809 28.6387 18.3086 28.6387H24.6914C25.6191 28.6387 26.3711 27.8867 26.3711 26.959C26.3711 26.0313 25.6191 25.2793 24.6914 25.2793Z" fill="#1C56B6"/>
<path d="M37.9609 19.8203H34.7485L37.3709 11.9531C37.6642 11.073 37.1886 10.1217 36.3085 9.82844C35.4282 9.53491 34.4773 10.0107 34.1839 10.8908L31.2073 19.8203H23.1797V8.0625C23.1797 7.13481 22.4277 6.38281 21.5 6.38281C20.5723 6.38281 19.8203 7.13481 19.8203 8.0625V19.8203H11.7927L8.81609 10.8907C8.52282 10.0106 7.5717 9.53517 6.69146 9.82836C5.81138 10.1217 5.33578 11.0729 5.62914 11.953L8.25155 19.8203H5.03906C2.26052 19.8203 0 22.0808 0 24.8594V34.9375C0 35.8652 0.751996 36.6172 1.67969 36.6172H10.4771C11.1772 36.6172 11.8039 36.1829 12.0498 35.5272L12.5859 34.0977H30.4141L30.9502 35.5272C31.196 36.1828 31.8228 36.6172 32.5229 36.6172H41.3203C42.248 36.6172 43 35.8652 43 34.9375V24.8594C43 22.0808 40.7395 19.8203 37.9609 19.8203ZM39.6406 33.2578H33.687L33.1509 31.8282C32.905 31.1726 32.2783 30.7383 31.5781 30.7383H11.4219C10.7217 30.7383 10.095 31.1726 9.8491 31.8282L9.31303 33.2578H3.35938V24.8594C3.35938 23.9332 4.11288 23.1797 5.03906 23.1797C6.44572 23.1797 36.4672 23.1797 37.9609 23.1797C38.8871 23.1797 39.6406 23.9332 39.6406 24.8594V33.2578Z" fill="#1C56B6"/>
</svg>
