<svg width="43" height="43" viewBox="0 0 43 43" fill="none" xmlns="http://www.w3.org/2000/svg">
<g clip-path="url(#clip0_470_2063)">
<path d="M31.045 25.6202L42.3071 17.4369C43.6201 16.4829 42.9419 14.3981 41.32 14.3981H27.3993L23.0974 1.15741C22.5961 -0.386131 20.4036 -0.385475 19.9027 1.15741L15.6008 14.3981H1.68003C0.0570934 14.3981 -0.619375 16.4832 0.692881 17.4369L11.955 25.6202L7.65309 38.8608C7.15148 40.4047 8.92565 41.6923 10.2379 40.739L21.5 32.5558L32.7621 40.739C34.075 41.693 35.8479 40.4037 35.3466 38.8608L31.045 25.6202ZM22.4872 29.1206C21.8986 28.6925 21.1014 28.6928 20.5129 29.1206L12.4454 34.9821L15.527 25.4975C15.7517 24.8056 15.5056 24.0474 14.9168 23.6196L6.84966 17.7578H16.8212C17.5488 17.7578 18.1938 17.2893 18.4185 16.5971L21.5 7.11243L24.5815 16.5971C24.8062 17.2893 25.4512 17.7578 26.1789 17.7578H36.1504L28.0833 23.6196C27.4947 24.0474 27.2484 24.8056 27.4731 25.4975L30.5546 34.9821L22.4872 29.1206Z" fill="#1C56B6"/>
</g>
<defs>
<clipPath id="clip0_470_2063">
<rect width="43" height="43" fill="white"/>
</clipPath>
</defs>
</svg>
