<svg width="43" height="43" viewBox="0 0 43 43" fill="none" xmlns="http://www.w3.org/2000/svg">
<g clip-path="url(#clip0_470_2055)">
<path d="M41.3203 0H1.67969C0.751996 0 0 0.751996 0 1.67969V31.9141C0 32.8418 0.751996 33.5938 1.67969 33.5938H16.4609V39.6406H11.4219C10.4942 39.6406 9.74219 40.3926 9.74219 41.3203C9.74219 42.248 10.4942 43 11.4219 43H31.5781C32.5058 43 33.2578 42.248 33.2578 41.3203C33.2578 40.3926 32.5058 39.6406 31.5781 39.6406H26.5391V33.5938H41.3203C42.248 33.5938 43 32.8418 43 31.9141V1.67969C43 0.751996 42.248 0 41.3203 0ZM23.1797 39.6406H19.8203V33.5938H23.1797V39.6406ZM39.6406 30.2344H3.35938V3.35938H39.6406V30.2344Z" fill="#1C56B6"/>
<path d="M8.0625 26.875H24.8594C25.7871 26.875 26.5391 26.123 26.5391 25.1953C26.5391 24.2676 25.7871 23.5156 24.8594 23.5156H23.1797V11.7578C23.1797 10.8301 22.4277 10.0781 21.5 10.0781C20.5723 10.0781 19.8203 10.8301 19.8203 11.7578V23.5156H16.4609V15.1172C16.4609 14.1895 15.7089 13.4375 14.7812 13.4375C13.8536 13.4375 13.1016 14.1895 13.1016 15.1172V23.5156H9.74219V18.4766C9.74219 17.5489 8.99019 16.7969 8.0625 16.7969C7.13481 16.7969 6.38281 17.5489 6.38281 18.4766V25.1953C6.38281 26.123 7.13481 26.875 8.0625 26.875Z" fill="#1C56B6"/>
<path d="M29.4065 12.9455L29.8984 12.4535V18.4766C29.8984 19.4042 30.6504 20.1562 31.5781 20.1562C32.5058 20.1562 33.2578 19.4042 33.2578 18.4766V12.4535L33.7498 12.9455C34.4058 13.6015 35.4693 13.6015 36.1252 12.9455C36.7812 12.2895 36.7812 11.226 36.1252 10.5701L32.766 7.21089C32.1113 6.55598 31.045 6.55598 30.3902 7.21089L27.031 10.5701C26.375 11.2261 26.375 12.2896 27.031 12.9455C27.687 13.6014 28.7505 13.6015 29.4065 12.9455Z" fill="#1C56B6"/>
</g>
<defs>
<clipPath id="clip0_470_2055">
<rect width="43" height="43" fill="white"/>
</clipPath>
</defs>
</svg>
