<svg width="43" height="43" viewBox="0 0 43 43" fill="none" xmlns="http://www.w3.org/2000/svg">
<g clip-path="url(#clip0_469_1978)">
<path d="M39.1489 9.71332C38.4927 10.3694 37.4291 10.3694 36.7733 9.71365C32.6752 5.61613 27.2362 3.35938 21.458 3.35938C15.6798 3.35938 10.2408 5.61613 6.14267 9.71365C5.48687 10.3694 4.42329 10.3694 3.76749 9.71332C3.11136 9.05752 3.11136 7.99393 3.76749 7.33813C8.49981 2.60614 14.7826 0 21.458 0C28.1335 0 34.4162 2.60614 39.1485 7.33813C39.8047 7.99393 39.8047 9.05752 39.1489 9.71332ZM21.458 6.71875C16.5748 6.71875 11.9789 8.62513 8.51752 12.0869C7.8614 12.7427 7.8614 13.8062 8.51752 14.462C9.17332 15.1182 10.2369 15.1182 10.8927 14.462C13.72 11.6351 17.472 10.0781 21.458 10.0781C25.444 10.0781 29.1961 11.6351 32.023 14.462C32.6791 15.1182 33.7424 15.1182 34.3985 14.462C35.0546 13.8062 35.0546 12.7427 34.3985 12.0869C30.9371 8.62513 26.3412 6.71875 21.458 6.71875ZM29.3053 18.7557C29.923 18.0639 29.8633 17.0019 29.1714 16.3842C27.0443 14.484 24.3049 13.4375 21.458 13.4375C18.6111 13.4375 15.8717 14.484 13.7446 16.3842C13.0527 17.0019 12.9926 18.0639 13.6107 18.7557C14.2288 19.4476 15.2904 19.5073 15.9826 18.8893C17.493 17.5399 19.4378 16.7969 21.458 16.7969C23.4782 16.7969 25.423 17.5399 26.9334 18.8893C27.6236 19.5057 28.6856 19.4493 29.3053 18.7557ZM19.7783 21.5V32.25C19.7783 33.1778 20.5302 33.9297 21.458 33.9297C22.3858 33.9297 23.1377 33.1778 23.1377 32.25V21.5C23.1377 20.5722 22.3858 19.8203 21.458 19.8203C20.5302 19.8203 19.7783 20.5722 19.7783 21.5ZM27.4314 23.3116C26.6604 22.7955 25.6172 23.0022 25.1012 23.7732C24.5851 24.5441 24.7918 25.5873 25.5627 26.1034C27.6204 27.4806 28.8486 29.7784 28.8486 32.25C28.8486 36.3252 25.5332 39.6406 21.458 39.6406C17.3828 39.6406 14.0674 36.3252 14.0674 32.25C14.0674 29.7784 15.2957 27.4806 17.3533 26.1034C18.1242 25.5873 18.3309 24.5441 17.8145 23.7732C17.2988 23.0022 16.2552 22.7959 15.4846 23.3116C12.4937 25.3137 10.708 28.6554 10.708 32.25C10.708 38.1775 15.5302 43 21.458 43C27.3855 43 32.208 38.1775 32.208 32.25C32.208 28.6554 30.4224 25.3137 27.4314 23.3116Z" fill="#1C56B6"/>
</g>
<defs>
<clipPath id="clip0_469_1978">
<rect width="43" height="43" fill="white"/>
</clipPath>
</defs>
</svg>
