<svg width="40" height="40" viewBox="0 0 40 40" fill="none" xmlns="http://www.w3.org/2000/svg">
<g clip-path="url(#clip0_783_1353)">
<path d="M25.9375 9.375C26.8004 9.375 27.5 8.67544 27.5 7.8125C27.5 6.94956 26.8004 6.25 25.9375 6.25C25.0746 6.25 24.375 6.94956 24.375 7.8125C24.375 8.67544 25.0746 9.375 25.9375 9.375Z" fill="#1C3A78"/>
<path d="M32.1875 9.375C33.0504 9.375 33.75 8.67544 33.75 7.8125C33.75 6.94956 33.0504 6.25 32.1875 6.25C31.3246 6.25 30.625 6.94956 30.625 7.8125C30.625 8.67544 31.3246 9.375 32.1875 9.375Z" fill="#1C3A78"/>
<path d="M32.1875 15.625C33.0504 15.625 33.75 14.9254 33.75 14.0625C33.75 13.1996 33.0504 12.5 32.1875 12.5C31.3246 12.5 30.625 13.1996 30.625 14.0625C30.625 14.9254 31.3246 15.625 32.1875 15.625Z" fill="#1C3A78"/>
<path d="M25.9375 15.625C26.8004 15.625 27.5 14.9254 27.5 14.0625C27.5 13.1996 26.8004 12.5 25.9375 12.5C25.0746 12.5 24.375 13.1996 24.375 14.0625C24.375 14.9254 25.0746 15.625 25.9375 15.625Z" fill="#1C3A78"/>
<path d="M32.1875 21.875C33.0504 21.875 33.75 21.1754 33.75 20.3125C33.75 19.4496 33.0504 18.75 32.1875 18.75C31.3246 18.75 30.625 19.4496 30.625 20.3125C30.625 21.1754 31.3246 21.875 32.1875 21.875Z" fill="#1C3A78"/>
<path d="M25.9375 21.875C26.8004 21.875 27.5 21.1754 27.5 20.3125C27.5 19.4496 26.8004 18.75 25.9375 18.75C25.0746 18.75 24.375 19.4496 24.375 20.3125C24.375 21.1754 25.0746 21.875 25.9375 21.875Z" fill="#1C3A78"/>
<path d="M32.1875 0H7.8125C3.50461 0 0 3.50469 0 7.8125V29.0625C0 33.3703 3.50461 36.875 7.8125 36.875H14.0188C14.6637 38.6936 16.4005 40 18.4375 40H21.5625C24.1472 40 26.25 37.8972 26.25 35.3125V27.8125H27.8125C28.6755 27.8125 29.375 27.113 29.375 26.25C29.375 25.387 28.6755 24.6875 27.8125 24.6875H12.1875C11.3245 24.6875 10.625 25.387 10.625 26.25C10.625 27.113 11.3245 27.8125 12.1875 27.8125H13.75V33.75H7.8125C5.22781 33.75 3.125 31.6472 3.125 29.0625V7.8125C3.125 5.22781 5.22781 3.125 7.8125 3.125H32.1875C34.7722 3.125 36.875 5.22781 36.875 7.8125V29.0625C36.875 31.6472 34.7722 33.75 32.1875 33.75H30.9375C30.0745 33.75 29.375 34.4495 29.375 35.3125C29.375 36.1755 30.0745 36.875 30.9375 36.875H32.1875C36.4954 36.875 40 33.3703 40 29.0625V7.8125C40 3.50469 36.4954 0 32.1875 0ZM23.125 27.8125V35.3125C23.125 36.1741 22.4241 36.875 21.5625 36.875H18.4375C17.5759 36.875 16.875 36.1741 16.875 35.3125V27.8125H23.125Z" fill="#1C3A78"/>
<path d="M10.9375 6.25C8.35281 6.25 6.25 8.35281 6.25 10.9375V16.875C6.25 19.4597 8.35281 21.5625 10.9375 21.5625H16.5625C19.1472 21.5625 21.25 19.4597 21.25 16.875V10.9375C21.25 8.35281 19.1472 6.25 16.5625 6.25H10.9375ZM18.125 10.9375V16.875C18.125 17.7366 17.4241 18.4375 16.5625 18.4375H10.9375C10.0759 18.4375 9.375 17.7366 9.375 16.875V10.9375C9.375 10.0759 10.0759 9.375 10.9375 9.375H16.5625C17.4241 9.375 18.125 10.0759 18.125 10.9375Z" fill="#1C3A78"/>
</g>
<defs>
<clipPath id="clip0_783_1353">
<rect width="40" height="40" fill="white"/>
</clipPath>
</defs>
</svg>
