<svg width="38" height="47" viewBox="0 0 38 47" fill="none" xmlns="http://www.w3.org/2000/svg">
<g clip-path="url(#clip0_783_1331)">
<path d="M0 10.2303L5.63486 20.4039V26.6095L0.00659184 36.763L0 10.2303Z" fill="#5B57A2"/>
<path d="M21.6357 16.7019L26.9158 13.433L37.7218 13.4229L21.6357 23.3767V16.7019Z" fill="#D90751"/>
<path d="M21.6055 10.1704L21.6353 23.6398L15.9873 20.1344V0L21.6055 10.1704Z" fill="#FAB718"/>
<path d="M37.7214 13.4228L26.915 13.433L21.6055 10.1704L15.9873 0L37.7214 13.4228Z" fill="#ED6F26"/>
<path d="M21.6353 36.8194V30.2844L15.9873 26.8456L15.9904 47L21.6353 36.8194Z" fill="#63B22F"/>
<path d="M26.9024 33.5803L5.63447 20.4039L0 10.2303L37.6987 33.567L26.9024 33.5803Z" fill="#1487C9"/>
<path d="M15.9912 47L21.6354 36.8194L26.9023 33.5803L37.6985 33.567L15.9912 47Z" fill="#017F36"/>
<path d="M0.00683594 36.7631L16.0339 26.8461L10.6457 23.5067L5.6351 26.6095L0.00683594 36.7631Z" fill="#984995"/>
</g>
<defs>
<clipPath id="clip0_783_1331">
<rect width="38" height="47" fill="white"/>
</clipPath>
</defs>
</svg>
