<svg width="456" height="216" viewBox="0 0 456 216" fill="none" xmlns="http://www.w3.org/2000/svg">
<mask id="mask0_763_1983" style="mask-type:alpha" maskUnits="userSpaceOnUse" x="0" y="0" width="456" height="216">
<rect width="456" height="216" fill="#C4C4C4"/>
</mask>
<g mask="url(#mask0_763_1983)">
<path d="M295.646 26.0717C363.078 35.996 407.144 62.819 448.727 85.5835C455.002 88.9939 461.324 92.5066 467.88 96.0023V132.17C452.052 121.853 438.237 111.059 425.079 101.698C388.646 75.7785 350.763 46.2784 283.845 32.6027C217.209 18.9781 137.039 37.1044 75.0854 50.5585C74.8044 50.6267 74.5234 50.6779 74.2425 50.7461C75.6941 50.405 77.1926 50.047 78.6443 49.723C142.939 34.7342 223.203 15.4142 295.646 26.0717Z" fill="#1C56B6"/>
<path d="M189.54 35.0114C219.749 31.9433 250.821 33.5796 277.941 40.2612C342.083 56.0787 375.608 87.5093 408.224 114.985C423.806 128.161 440.159 144.558 461.464 158.91V206.703C421.988 186.795 403.454 155.211 383.921 133.206C356.665 102.526 329.273 67.0726 265.993 47.2495C243.416 40.193 217.023 37.2102 189.268 38.6249C152.836 40.4828 116.63 49.312 82.3334 55.9765C66.5249 59.0616 49.9896 62.4705 33 65.6408C48.9448 62.3682 64.3899 58.8911 79.0627 55.7378C115.086 48.0166 151.745 38.8465 189.54 35.0114Z" fill="#1C56B6"/>
</g>
</svg>
