<svg width="701" height="295" viewBox="0 0 701 295" fill="none" xmlns="http://www.w3.org/2000/svg">
<path d="M700.455 283.565C641.938 287.608 584.997 282.217 533.28 251.447C510.223 237.741 490.435 219.533 473.449 198.757C464.314 187.568 452.407 178.337 438.018 175.464C422.55 172.387 406.352 173.15 390.446 171.649C375.94 170.302 362.048 166.106 347.572 164.453C312.199 160.359 277.351 171.675 242.533 177.905C207.86 184.11 177.478 171.09 149.547 153.645C119.865 135.133 95.8748 109.067 71.1546 84.5533C50.0534 63.6248 26.9675 46.1293 0 35.4489V0.00012207C33.9429 8.51901 63.4788 28.0743 85.6599 54.3176C108.571 81.4255 129.497 111.941 156.96 135.006C182.41 156.366 210.837 173.404 246.356 169.107C280.328 164.987 314.329 156.163 348.564 159.621C362.398 161.02 375.999 164.148 390.008 164.224C407.402 164.3 424.739 161.732 441.52 164.86C456.434 167.657 467.787 178.744 476.193 190.95C492.303 214.295 512.062 234.537 536.228 249.311C586.952 280.284 642.989 283.031 700.455 275.682V283.565Z" fill="#1C56B6"/>
<path d="M700.455 295C641.909 293.426 585.026 283.704 532.959 254.842C511.041 242.683 490.99 227.504 472.982 210.166C461.542 199.175 447.708 191.128 431.889 188.082C415.691 184.985 398.588 184.071 382.565 179.68C369.607 176.126 357.232 172.192 343.661 170.821C308.463 167.267 274.053 181.457 240.256 191.052C204.27 201.256 169.627 194.022 136.851 181.203C102.383 167.699 73.11 145.31 43.8076 123.226C29.7985 112.64 15.2933 102.563 0 93.9324V54.5108C22.7648 65.1722 43.0196 80.4026 62.2238 97.6638C88.1115 120.941 113.532 145.361 144.294 162.114C173.217 177.878 204.65 189.605 239.147 182.701C273.732 175.771 308.463 162.85 343.865 166.353C358.516 167.8 372.234 172.141 386.651 174.527C402.266 177.116 418.493 176.913 433.932 179.604C450.101 182.421 463.526 191.94 474.062 204.074C491.253 223.874 511.653 240.475 534.506 253.497C586.018 282.866 642.464 289.492 700.455 287.283V295Z" fill="#1C56B6"/>
</svg>
