<svg width="166" height="50" viewBox="0 0 166 50" fill="none" xmlns="http://www.w3.org/2000/svg">
<g clip-path="url(#clip0_2001_592)">
<path fill-rule="evenodd" clip-rule="evenodd" d="M24.644 0.341797C38.2545 0.341797 49.2879 11.4581 49.2879 25.1709C49.2879 38.8836 38.2545 49.9999 24.644 49.9999C11.0336 49.9999 0.000183105 38.8836 0.000183105 25.1709C0.000183105 11.4581 11.0336 0.341797 24.644 0.341797ZM24.644 3.09157C36.7472 3.09157 46.5586 12.9768 46.5586 25.1709C46.5586 37.365 36.7472 47.2502 24.644 47.2502C12.5409 47.2502 2.72944 37.365 2.72944 25.1709C2.72944 12.9767 12.5409 3.09157 24.644 3.09157Z" fill="#1C3A78"/>
<path fill-rule="evenodd" clip-rule="evenodd" d="M24.644 4.84668C35.785 4.84668 44.8166 13.9461 44.8166 25.1709C44.8166 36.3956 35.785 45.4951 24.644 45.4951C13.503 45.4951 4.47144 36.3956 4.47144 25.1709C4.47144 13.9461 13.503 4.84668 24.644 4.84668ZM23.7063 29.6202L29.1015 29.5267V32.8783C28.5108 33.6625 27.2516 34.5152 25.4133 34.5152C19.9421 34.5152 16.353 30.855 16.353 25.1663C16.353 18.8161 20.2485 15.8174 25.282 15.8174C27.6455 15.8174 30.3155 16.7875 31.541 18.1105L35.5367 13.4929C33.5733 11.3299 29.0024 9.20259 24.4504 9.20259C14.821 9.20259 8.91218 16.3025 8.91218 25.1663C8.91218 34.7797 14.821 41.13 25.3257 41.13C29.1337 41.13 34.0796 39.4983 36.7934 36.7642V23.0055H23.7063V29.6202Z" fill="#1C3A78"/>
<path d="M58.0088 20.8721L54.919 36.0877H50.7761L53.8659 20.8721H58.0088ZM59.1092 15.3855L58.3569 19.0904H54.214L54.9663 15.3855H59.1092ZM72.8467 20.8721H76.8134L73.9137 35.2675C73.8054 35.7577 73.7105 36.1725 73.6288 36.5119C73.5471 36.8513 73.3938 37.2896 73.1689 37.827C72.9441 38.3644 72.6933 38.8263 72.4166 39.2128C72.14 39.5993 71.7609 40.0095 71.2795 40.4431C70.798 40.8768 70.2563 41.2303 69.6543 41.5036C69.0522 41.777 68.3122 42.0033 67.4341 42.1824C66.556 42.3615 65.5783 42.4511 64.501 42.4511C62.8556 42.4511 61.4488 42.1211 60.2806 41.4612C59.1124 40.8013 58.516 39.8303 58.4917 38.5482C58.4895 38.4351 58.5048 38.2088 58.5375 37.8695H63.033C63.0373 38.0957 63.0654 38.2843 63.1171 38.4351C63.169 38.5859 63.27 38.7462 63.4201 38.9159C63.5703 39.0855 63.8322 39.2128 64.206 39.2977C64.5798 39.3825 65.0507 39.4249 65.6188 39.4249C67.9302 39.4249 69.3274 38.2182 69.8104 35.8048L70.2151 33.91H70.0976C68.7394 35.6257 67.1299 36.4836 65.269 36.4836C63.6237 36.4836 62.2922 35.9934 61.2745 35.013C60.2569 34.0325 59.7309 32.6373 59.6965 30.8273C59.6639 29.1115 59.995 27.4665 60.6898 25.8921C61.3847 24.3178 62.4031 23.0216 63.7451 22.0034C65.0871 20.9853 66.5906 20.4762 68.2556 20.4762C70.4103 20.4762 71.769 21.3624 72.3315 23.1346H72.3902L72.8467 20.8721V20.8721ZM68.6738 23.9265C67.2243 23.9265 66.0807 24.5676 65.2433 25.8498C64.4057 27.1318 64.0017 28.5459 64.031 30.092C64.0479 30.9782 64.2627 31.7182 64.6756 32.3121C65.0884 32.9061 65.7552 33.203 66.6757 33.203C67.7532 33.203 68.6672 32.8589 69.4181 32.1707C70.1689 31.4825 70.6971 30.6718 71.0026 29.7385C71.3081 28.8053 71.4513 27.8389 71.4323 26.8396C71.3954 24.8976 70.4759 23.9266 68.6738 23.9266V23.9265ZM82.4307 25.7932H78.4348C78.7663 24.6808 79.2235 23.7522 79.8068 23.0074C80.3901 22.2627 81.0702 21.7159 81.8471 21.3671C82.624 21.0183 83.3736 20.7826 84.0961 20.6601C84.8185 20.5375 85.64 20.4763 86.5606 20.4763C87.1483 20.4763 87.7222 20.5234 88.2822 20.6177C88.8422 20.7119 89.4231 20.8722 90.0249 21.0985C90.6266 21.3247 91.1133 21.6829 91.485 22.1732C91.8567 22.6634 92.049 23.2479 92.0619 23.9266C92.068 24.2471 92.0349 24.5677 91.9626 24.8882L90.2973 33.1182C90.1906 33.6838 90.14 34.1174 90.1458 34.4191C90.1561 34.9658 90.3489 35.3147 90.7239 35.4655L90.6183 36.0877H86.1522C86.1094 35.8992 86.0844 35.6164 86.0773 35.2393C86.0708 34.8999 86.0843 34.5793 86.1178 34.2777C85.5971 34.7114 85.1482 35.0554 84.7711 35.31C84.3939 35.5645 83.8161 35.8238 83.0377 36.0878C82.2591 36.3517 81.4389 36.4837 80.5771 36.4837C79.4409 36.4837 78.4955 36.2056 77.7405 35.6494C76.9856 35.0932 76.5978 34.2682 76.577 33.1747C76.5573 32.1377 76.7798 31.2186 77.2444 30.4173C77.7091 29.616 78.3579 28.9702 79.1908 28.48C80.0238 27.9898 80.9324 27.608 81.9163 27.3346C82.9003 27.0612 83.9693 26.8774 85.1232 26.7831C86.0425 26.7077 86.7296 26.5333 87.1847 26.2599C87.6398 25.9865 87.8619 25.567 87.8512 25.0014C87.8344 24.1152 87.0228 23.6721 85.4167 23.6721C84.7703 23.6721 84.2242 23.7993 83.7785 24.0539C83.3329 24.3085 83.0293 24.5677 82.8678 24.8317C82.7062 25.0956 82.5606 25.4162 82.4306 25.7932L82.4307 25.7932ZM87.1573 28.6779C86.6349 29.0173 85.6313 29.2906 84.1465 29.4981C81.9 29.8186 80.7911 30.733 80.8198 32.2414C80.8284 32.6939 80.9867 33.038 81.2948 33.2737C81.6029 33.5094 81.9822 33.6272 82.4327 33.6272C83.3926 33.6272 84.3079 33.3491 85.1788 32.7929C86.0497 32.2367 86.5746 31.5155 86.7536 30.6293L87.1574 28.6779H87.1573ZM97.6911 15.5552H102.392L107.982 29.8374H108.041L110.913 15.5552H115.056L110.921 36.0877H106.455L100.741 21.4377H100.653L97.6994 36.0877H93.5566L97.6912 15.5552H97.6911ZM125.439 31.6192H129.7C128.87 33.2973 127.732 34.5275 126.288 35.3099C124.844 36.0924 123.348 36.4837 121.8 36.4837C117.53 36.4837 115.36 34.6453 115.29 30.9687C115.278 30.3465 115.334 29.6536 115.456 28.89C115.579 28.1264 115.846 27.2308 116.257 26.2033C116.669 25.1757 117.2 24.2518 117.85 23.4316C118.5 22.6115 119.423 21.9138 120.616 21.3388C121.81 20.7637 123.181 20.4762 124.728 20.4762C126.628 20.4762 128.115 20.9051 129.189 21.763C130.263 22.6209 130.817 23.9171 130.85 25.6517C130.867 26.5756 130.686 27.8765 130.307 29.5546H119.582C119.493 29.9883 119.451 30.3842 119.458 30.7424C119.49 32.4393 120.486 33.2878 122.445 33.2878C123.052 33.2878 123.637 33.137 124.199 32.8353C124.761 32.5336 125.175 32.1282 125.439 31.6192V31.6192ZM120.091 26.9528H126.555C126.591 26.7642 126.606 26.5474 126.602 26.3023C126.585 25.4161 126.323 24.7703 125.816 24.3649C125.308 23.9596 124.702 23.7569 123.997 23.7569C122.077 23.7569 120.776 24.8221 120.091 26.9527L120.091 26.9528ZM135.911 16.7996H140.054L139.221 20.9004H141.807L141.244 23.7569H138.659C137.492 29.3378 136.911 32.2791 136.917 32.5808C136.921 32.807 137.032 32.972 137.249 33.0757C137.467 33.1794 137.879 33.2313 138.486 33.2313C138.937 33.2313 139.22 33.2124 139.337 33.1747L138.748 36.1726C137.574 36.2291 136.918 36.2574 136.781 36.2574C135.214 36.2574 134.118 36.0736 133.494 35.7059C132.87 35.3382 132.551 34.7962 132.538 34.0797C132.531 33.7403 133.191 30.2994 134.516 23.7569H132.4L132.963 20.9004H135.078L135.911 16.7996Z" fill="#1C3A78"/>
<path fill-rule="evenodd" clip-rule="evenodd" d="M84.6463 0C129.577 0 166 11.1095 166 24.8133C166 38.5175 129.577 49.6267 84.6463 49.6267C63.5347 49.6267 44.3024 47.1736 29.8433 43.1515C43.0792 45.8283 59.2191 47.4009 76.6403 47.4009C121.57 47.4009 157.994 36.945 157.994 24.047C157.994 11.1492 121.57 0.693138 76.6403 0.693138C70.7195 0.693138 64.949 0.876198 59.3878 1.22136C67.3397 0.429662 75.8279 0 84.6463 0Z" fill="#1C3A78"/>
</g>
<defs>
<clipPath id="clip0_2001_592">
<rect width="166" height="50" fill="white"/>
</clipPath>
</defs>
</svg>
