<svg width="162" height="49" viewBox="0 0 162 49" fill="none" xmlns="http://www.w3.org/2000/svg">
<g clip-path="url(#clip0_2001_194)">
<path fill-rule="evenodd" clip-rule="evenodd" d="M24.0502 0.334961C37.3327 0.334961 48.1002 11.2289 48.1002 24.6675C48.1002 38.1059 37.3327 48.9999 24.0502 48.9999C10.7677 48.9999 0.000183105 38.106 0.000183105 24.6675C0.000183105 11.229 10.7677 0.334961 24.0502 0.334961ZM24.0502 3.02974C35.8617 3.02974 45.4367 12.7172 45.4367 24.6675C45.4367 36.6177 35.8617 46.3052 24.0502 46.3052C12.2387 46.3052 2.66368 36.6177 2.66368 24.6675C2.66368 12.7172 12.2387 3.02974 24.0502 3.02974Z" fill="white"/>
<path fill-rule="evenodd" clip-rule="evenodd" d="M24.0502 4.74976C34.9228 4.74976 43.7367 13.6672 43.7367 24.6675C43.7367 35.6677 34.9228 44.5852 24.0502 44.5852C13.1776 44.5852 4.36371 35.6677 4.36371 24.6675C4.36371 13.6672 13.1776 4.74976 24.0502 4.74976ZM23.135 29.0278L28.4002 28.9362V32.2207C27.8238 32.9892 26.595 33.8249 24.801 33.8249C19.4616 33.8249 15.959 30.2379 15.959 24.663C15.959 18.4398 19.7606 15.501 24.6728 15.501C26.9794 15.501 29.585 16.4518 30.781 17.7483L34.6804 13.223C32.7643 11.1033 28.3035 9.01855 23.8612 9.01855C14.4639 9.01855 8.69744 15.9765 8.69744 24.663C8.69744 34.0841 14.4639 40.3074 24.7155 40.3074C28.4317 40.3074 33.2585 38.7084 35.9068 36.0289V22.5454H23.135V29.0278Z" fill="white"/>
<path d="M56.611 20.4545L53.5957 35.3658H49.5526L52.5679 20.4545H56.611ZM57.6849 15.0776L56.9507 18.7084H52.9076L53.6418 15.0776H57.6849ZM71.0914 20.4545H74.9625L72.1326 34.562C72.027 35.0424 71.9343 35.4489 71.8546 35.7815C71.7749 36.1141 71.6253 36.5437 71.4058 37.0703C71.1864 37.5969 70.9417 38.0497 70.6717 38.4284C70.4017 38.8072 70.0318 39.2091 69.5619 39.6341C69.0921 40.0591 68.5634 40.4055 67.9759 40.6734C67.3883 40.9413 66.6661 41.163 65.8092 41.3386C64.9523 41.5141 63.9982 41.6019 62.9467 41.6019C61.341 41.6019 59.9681 41.2786 58.8281 40.6319C57.688 39.9851 57.106 39.0336 57.0822 37.7771C57.0801 37.6662 57.095 37.4445 57.127 37.1119H61.5141C61.5183 37.3337 61.5458 37.5184 61.5963 37.6663C61.6469 37.814 61.7455 37.9711 61.8919 38.1374C62.0385 38.3037 62.2941 38.4284 62.6589 38.5116C63.0237 38.5947 63.4833 38.6363 64.0376 38.6363C66.2933 38.6363 67.6569 37.4537 68.1283 35.0886L68.5232 33.2316H68.4085C67.0831 34.9131 65.5124 35.7538 63.6963 35.7538C62.0906 35.7538 60.7911 35.2733 59.7981 34.3126C58.8049 33.3517 58.2916 31.9844 58.258 30.2106C58.2262 28.5291 58.5494 26.917 59.2274 25.3741C59.9056 23.8313 60.8994 22.561 62.2091 21.5632C63.5187 20.5654 64.9861 20.0665 66.6109 20.0665C68.7137 20.0665 70.0396 20.935 70.5885 22.6718H70.6459L71.0914 20.4545V20.4545ZM67.019 23.4479C65.6044 23.4479 64.4884 24.0761 63.6711 25.3326C62.8538 26.589 62.4595 27.9749 62.4881 29.49C62.5046 30.3585 62.7142 31.0837 63.1172 31.6657C63.52 32.2478 64.1707 32.5388 65.0691 32.5388C66.1206 32.5388 67.0126 32.2016 67.7454 31.5271C68.4781 30.8527 68.9935 30.0582 69.2917 29.1436C69.5898 28.229 69.7296 27.282 69.7111 26.3027C69.675 24.3995 68.7777 23.4479 67.019 23.4479V23.4479ZM80.4444 25.2772H76.5448C76.8683 24.187 77.3145 23.277 77.8838 22.5471C78.453 21.8173 79.1167 21.2815 79.8749 20.9396C80.633 20.5978 81.3646 20.3668 82.0696 20.2468C82.7747 20.1266 83.5764 20.0666 84.4748 20.0666C85.0483 20.0666 85.6084 20.1128 86.1549 20.2051C86.7015 20.2975 87.2684 20.4546 87.8556 20.6764C88.4428 20.8981 88.9178 21.2491 89.2806 21.7296C89.6433 22.2099 89.831 22.7828 89.8436 23.4479C89.8495 23.762 89.8172 24.0762 89.7467 24.3903L88.1215 32.4556C88.0173 33.01 87.968 33.4349 87.9736 33.7305C87.9837 34.2664 88.1718 34.6082 88.5378 34.756L88.4347 35.3658H84.0762C84.0345 35.181 84.0101 34.9039 84.0031 34.5343C83.9968 34.2017 84.01 33.8876 84.0427 33.592C83.5345 34.017 83.0965 34.3542 82.7284 34.6036C82.3603 34.8531 81.7965 35.1072 81.0368 35.3658C80.277 35.6245 79.4766 35.7539 78.6355 35.7539C77.5267 35.7539 76.604 35.4813 75.8673 34.9362C75.1306 34.3912 74.752 33.5827 74.7318 32.5111C74.7126 31.4948 74.9297 30.5941 75.3831 29.8088C75.8366 29.0235 76.4698 28.3907 77.2826 27.9102C78.0956 27.4298 78.9822 27.0557 79.9424 26.7878C80.9027 26.5199 81.946 26.3397 83.072 26.2473C83.9692 26.1734 84.6397 26.0025 85.0839 25.7346C85.528 25.4667 85.7448 25.0555 85.7343 24.5012C85.7179 23.6327 84.9259 23.1985 83.3585 23.1985C82.7276 23.1985 82.1947 23.3232 81.7597 23.5727C81.3249 23.8222 81.0286 24.0762 80.871 24.3349C80.7133 24.5935 80.5712 24.9077 80.4444 25.2772L80.4444 25.2772ZM85.0571 28.1042C84.5473 28.4368 83.5679 28.7047 82.1189 28.908C79.9265 29.222 78.8443 30.1182 78.8723 31.5964C78.8807 32.0399 79.0352 32.377 79.3359 32.6081C79.6366 32.8391 80.0067 32.9545 80.4464 32.9545C81.3831 32.9545 82.2764 32.6819 83.1263 32.1369C83.9762 31.5918 84.4885 30.885 84.6632 30.0166L85.0572 28.1042H85.0571ZM95.3371 15.2439H99.925L105.38 29.2405H105.437L108.241 15.2439H112.284L108.249 35.3658H103.89L98.3136 21.0088H98.2276L95.3452 35.3658H91.3022L95.3372 15.2439H95.3371ZM122.417 30.9867H126.574C125.764 32.6312 124.655 33.8368 123.245 34.6036C121.835 35.3704 120.375 35.7538 118.865 35.7538C114.698 35.7538 112.58 33.9523 112.512 30.3492C112.5 29.7395 112.555 29.0603 112.674 28.312C112.794 27.5637 113.054 26.686 113.456 25.679C113.857 24.672 114.376 23.7666 115.01 22.9629C115.645 22.1591 116.545 21.4754 117.71 20.9118C118.875 20.3483 120.212 20.0665 121.723 20.0665C123.577 20.0665 125.028 20.4869 126.076 21.3276C127.124 22.1683 127.665 23.4386 127.697 25.1385C127.714 26.0439 127.537 27.3188 127.167 28.9633H116.701C116.613 29.3884 116.573 29.7763 116.58 30.1274C116.611 31.7904 117.583 32.6219 119.494 32.6219C120.087 32.6219 120.657 32.4741 121.206 32.1784C121.755 31.8828 122.158 31.4855 122.417 30.9866V30.9867ZM117.197 26.4136H123.506C123.54 26.2287 123.556 26.0163 123.551 25.7761C123.535 24.9076 123.279 24.2748 122.784 23.8775C122.289 23.4802 121.697 23.2816 121.009 23.2816C119.136 23.2816 117.865 24.3255 117.198 26.4135L117.197 26.4136ZM132.636 16.4635H136.68L135.867 20.4823H138.39L137.841 23.2816H135.318C134.179 28.7509 133.612 31.6334 133.617 31.929C133.622 32.1507 133.73 32.3124 133.942 32.414C134.154 32.5157 134.557 32.5665 135.149 32.5665C135.589 32.5665 135.866 32.548 135.98 32.511L135.404 35.449C134.259 35.5044 133.619 35.5321 133.485 35.5321C131.956 35.5321 130.886 35.352 130.277 34.9916C129.668 34.6313 129.357 34.1001 129.344 33.398C129.338 33.0654 129.981 29.6933 131.274 23.2816H129.21L129.759 20.4823H131.824L132.636 16.4635Z" fill="white"/>
<path fill-rule="evenodd" clip-rule="evenodd" d="M82.6067 0C126.454 0 162 10.8873 162 24.3171C162 37.7472 126.454 48.6341 82.6067 48.6341C62.0037 48.6341 43.2349 46.2302 29.1242 42.2885C42.0412 44.9117 57.7921 46.4528 74.7936 46.4528C118.641 46.4528 154.187 36.2061 154.187 23.5661C154.187 10.9262 118.641 0.679275 74.7936 0.679275C69.0154 0.679275 63.3839 0.858674 57.9568 1.19694C65.717 0.421069 74.0007 0 82.6067 0Z" fill="white"/>
</g>
<defs>
<clipPath id="clip0_2001_194">
<rect width="162" height="49" fill="white"/>
</clipPath>
</defs>
</svg>
