<svg width="36" height="28" viewBox="0 0 36 28" fill="none" xmlns="http://www.w3.org/2000/svg">
<g clip-path="url(#clip0_2001_223)">
<path d="M35.2906 27.6202V27.6922H35.3578C35.3704 27.6924 35.3828 27.6892 35.3938 27.683C35.3981 27.6799 35.4017 27.6758 35.404 27.671C35.4064 27.6662 35.4075 27.6608 35.4073 27.6555C35.4075 27.6502 35.4064 27.645 35.404 27.6403C35.4016 27.6356 35.3981 27.6316 35.3938 27.6287C35.3829 27.6222 35.3704 27.619 35.3578 27.6195H35.2906V27.6202ZM35.3585 27.5693C35.3873 27.5675 35.4158 27.5758 35.4391 27.5927C35.4485 27.6003 35.4559 27.6101 35.4608 27.6212C35.4657 27.6322 35.468 27.6443 35.4674 27.6564C35.4678 27.6668 35.466 27.6772 35.4621 27.6868C35.4582 27.6965 35.4522 27.7052 35.4447 27.7123C35.4267 27.728 35.4041 27.7374 35.3803 27.7392L35.4703 27.8417H35.401L35.3182 27.7399H35.2913V27.8417H35.2334V27.5695H35.3594L35.3585 27.5693ZM35.3405 27.9357C35.3709 27.9359 35.401 27.9298 35.4289 27.9177C35.4557 27.9061 35.4801 27.8896 35.5009 27.8689C35.5216 27.8483 35.5382 27.8238 35.5496 27.7969C35.5733 27.7399 35.5733 27.6758 35.5496 27.6188C35.538 27.592 35.5214 27.5675 35.5009 27.5468C35.4801 27.5261 35.4557 27.5096 35.4289 27.498C35.4008 27.4865 35.3708 27.4808 35.3405 27.4811C35.3097 27.4808 35.2791 27.4866 35.2505 27.498C35.223 27.5094 35.198 27.5259 35.1769 27.5468C35.145 27.5794 35.1235 27.6207 35.1149 27.6655C35.1064 27.7103 35.1112 27.7566 35.1288 27.7987C35.1398 27.8257 35.1561 27.8502 35.1769 27.8707C35.198 27.8915 35.223 27.9081 35.2505 27.9195C35.2789 27.9316 35.3096 27.9377 35.3405 27.9375M35.3405 27.4156C35.4196 27.4155 35.4955 27.4466 35.552 27.502C35.5792 27.5286 35.6008 27.5603 35.6157 27.5954C35.6311 27.6314 35.639 27.6701 35.639 27.7092C35.639 27.7483 35.6311 27.787 35.6157 27.823C35.6005 27.8579 35.5789 27.8895 35.552 27.9164C35.5244 27.9429 35.4922 27.9642 35.4571 27.9794C35.4202 27.995 35.3805 28.003 35.3405 28.0028C35.2999 28.0031 35.2598 27.9951 35.2224 27.9794C35.1869 27.9646 35.1544 27.9432 35.1268 27.9164C35.0999 27.8885 35.0786 27.8558 35.064 27.82C35.0486 27.784 35.0407 27.7453 35.0407 27.7061C35.0407 27.667 35.0486 27.6283 35.064 27.5923C35.0788 27.5573 35.1005 27.5255 35.1277 27.4989C35.155 27.4717 35.1875 27.4502 35.2233 27.4359C35.2607 27.4202 35.3008 27.4123 35.3414 27.4125M7.77887 26.3642C7.77887 25.845 8.11907 25.4185 8.67509 25.4185C9.20645 25.4185 9.56501 25.8267 9.56501 26.3642C9.56501 26.9017 9.20645 27.3098 8.67509 27.3098C8.11907 27.3098 7.77887 26.8833 7.77887 26.3642ZM10.1707 26.3642V24.8868H9.52829V25.2467C9.32453 24.9807 9.01547 24.8139 8.59517 24.8139C7.76717 24.8139 7.11737 25.4632 7.11737 26.3649C7.11737 27.2666 7.76681 27.9159 8.59517 27.9159C9.01529 27.9159 9.32453 27.7489 9.52829 27.4831V27.8417H10.17V26.3642H10.1707ZM31.8773 26.3642C31.8773 25.845 32.2175 25.4185 32.7737 25.4185C33.3056 25.4185 33.6636 25.8267 33.6636 26.3642C33.6636 26.9017 33.3056 27.3098 32.7737 27.3098C32.2177 27.3098 31.8773 26.8833 31.8773 26.3642ZM34.2698 26.3642V23.7009H33.6269V25.2467C33.4231 24.9807 33.1141 24.8139 32.6938 24.8139C31.8658 24.8139 31.216 25.4632 31.216 26.3649C31.216 27.2666 31.8654 27.9159 32.6938 27.9159C33.1141 27.9159 33.4231 27.7489 33.6269 27.4831V27.8417H34.2698V26.3642ZM18.144 25.3881C18.558 25.3881 18.8239 25.6476 18.8917 26.1045H17.3588C17.4274 25.678 17.6864 25.3881 18.1442 25.3881M18.157 24.8123C17.2912 24.8123 16.6855 25.4421 16.6855 26.3633C16.6855 27.3024 17.3155 27.9142 18.2 27.9142C18.6449 27.9142 19.0525 27.8032 19.411 27.5004L19.0962 27.0244C18.8485 27.2223 18.5332 27.3334 18.2367 27.3334C17.8227 27.3334 17.4458 27.1417 17.3531 26.61H19.5467C19.553 26.5301 19.5595 26.4495 19.5595 26.3631C19.553 25.4423 18.9835 24.8121 18.1566 24.8121M25.9128 26.3631C25.9128 25.8439 26.253 25.4175 26.809 25.4175C27.3404 25.4175 27.6989 25.8256 27.6989 26.3631C27.6989 26.9006 27.3404 27.3087 26.809 27.3087C26.253 27.3087 25.9126 26.8822 25.9126 26.3631M28.3045 26.3631V24.8868H27.6624V25.2467C27.4579 24.9807 27.1496 24.8139 26.7293 24.8139C25.9013 24.8139 25.2515 25.4632 25.2515 26.3649C25.2515 27.2666 25.9009 27.9159 26.7293 27.9159C27.1496 27.9159 27.4579 27.7489 27.6624 27.4831V27.8417H28.3046V26.3642L28.3045 26.3631ZM22.2849 26.3631C22.2849 27.2591 22.9088 27.9141 23.861 27.9141C24.3059 27.9141 24.6024 27.8151 24.923 27.5619L24.6145 27.0428C24.3733 27.216 24.12 27.3087 23.8405 27.3087C23.3276 27.3024 22.9505 26.9317 22.9505 26.3631C22.9505 25.7945 23.3276 25.4239 23.8405 25.4175C24.1193 25.4175 24.3725 25.5101 24.6145 25.6834L24.923 25.1643C24.6019 24.9111 24.3054 24.8121 23.861 24.8121C22.9088 24.8121 22.2849 25.4669 22.2849 26.3631ZM30.5667 24.8121C30.1961 24.8121 29.9547 24.9854 29.7878 25.2449V24.8868H29.1512V27.8401H29.7943V26.1846C29.7943 25.6958 30.0044 25.4243 30.4243 25.4243C30.5618 25.4223 30.6984 25.4476 30.8261 25.4986L31.0241 24.8933C30.8819 24.8373 30.6965 24.8127 30.5663 24.8127M13.3468 25.1216C13.0378 24.9179 12.6119 24.8127 12.1421 24.8127C11.3936 24.8127 10.9118 25.1713 10.9118 25.7581C10.9118 26.2396 11.2705 26.5367 11.9311 26.6294L12.2346 26.6726C12.5869 26.7221 12.7532 26.8148 12.7532 26.9816C12.7532 27.2099 12.5192 27.3402 12.0798 27.3402C11.6348 27.3402 11.3137 27.1981 11.0972 27.0312L10.7953 27.532C11.1476 27.7915 11.5925 27.9153 12.0744 27.9153C12.9276 27.9153 13.4221 27.5137 13.4221 26.9513C13.4221 26.4322 13.0329 26.1606 12.3899 26.068L12.0872 26.0241C11.8091 25.9881 11.5862 25.9321 11.5862 25.7342C11.5862 25.5182 11.7963 25.3883 12.1487 25.3883C12.5258 25.3883 12.8909 25.5305 13.0698 25.6415L13.3479 25.1223L13.3468 25.1216ZM21.636 24.8132C21.2654 24.8132 21.024 24.9865 20.8579 25.246V24.8868H20.2212V27.8401H20.8636V26.1846C20.8636 25.6958 21.0737 25.4243 21.4936 25.4243C21.6311 25.4223 21.7677 25.4476 21.8954 25.4986L22.0934 24.8933C21.9512 24.8373 21.7658 24.8127 21.6356 24.8127M16.1539 24.8868H15.1034V23.9908H14.454V24.8868H13.8548V25.4738H14.454V26.8211C14.454 27.5063 14.72 27.9144 15.48 27.9144C15.7588 27.9144 16.0799 27.8281 16.2837 27.6861L16.0981 27.1361C15.9064 27.2472 15.6964 27.3031 15.5293 27.3031C15.2082 27.3031 15.1034 27.1052 15.1034 26.8088V25.4743H16.1539V24.8868ZM6.54929 27.8408V25.9874C6.54929 25.2893 6.10433 24.8197 5.38703 24.8134C5.00993 24.8071 4.62095 24.9244 4.34861 25.3388C4.14485 25.0113 3.82373 24.8134 3.37229 24.8134C3.05675 24.8134 2.74841 24.906 2.50703 25.2519V24.8868H1.86407V27.8401H2.51207V26.2026C2.51207 25.6899 2.79647 25.4175 3.23567 25.4175C3.66227 25.4175 3.87809 25.6955 3.87809 26.1961V27.8397H4.52753V26.2022C4.52753 25.6895 4.82399 25.4171 5.25041 25.4171C5.68907 25.4171 5.89841 25.6951 5.89841 26.1957V27.8394L6.54929 27.8408Z" fill="white"/>
<path d="M22.8702 19.8689H13.1348V2.37793H22.8704L22.8702 19.8689Z" fill="#EBEBEB"/>
<path d="M13.752 11.1239C13.752 7.57585 15.4138 4.41523 18.0014 2.37839C16.0427 0.834338 13.62 -0.00367252 11.1256 1.20988e-05C4.98096 1.20988e-05 0 4.98027 0 11.1239C0 17.2675 4.98096 22.2478 11.1256 22.2478C13.6201 22.2515 16.0428 21.4135 18.0016 19.8694C15.4141 17.8329 13.752 14.6721 13.752 11.1239Z" fill="#EBEBEB"/>
<path d="M36.0045 11.1239C36.0045 17.2675 31.0235 22.2478 24.8789 22.2478C22.3841 22.2514 19.9611 21.4134 18.002 19.8694C20.5904 17.8326 22.2521 14.6721 22.2521 11.1239C22.2521 7.57567 20.5904 4.41523 18.002 2.37839C19.9611 0.834385 22.384 -0.00360793 24.8787 1.16768e-05C31.0233 1.16768e-05 36.0043 4.98027 36.0043 11.1239" fill="#F2FAFF"/>
</g>
<defs>
<clipPath id="clip0_2001_223">
<rect width="36" height="28" fill="white"/>
</clipPath>
</defs>
</svg>
