<svg width="61" height="23" viewBox="0 0 61 23" fill="none" xmlns="http://www.w3.org/2000/svg">
<g clip-path="url(#clip0_2001_200)">
<path d="M4.86089 16.5748V21.2812H6.22363V9.00366H4.2006C2.19162 9.00366 0.519807 10.286 0.519807 12.8643C0.519807 14.7059 1.26439 15.7018 2.37425 16.2474L0 21.2949H1.57347L3.72294 16.5885L4.86089 16.5748ZM4.86089 15.4835H4.13035C2.95025 15.4835 1.96684 14.8423 1.96684 12.8779C1.96684 10.8317 3.03455 10.1223 4.13035 10.1223H4.86089V15.4835Z" fill="#F2FAFF"/>
<path d="M19.8931 20.1898H19.1907V12.6323H15.0463V13.3689C15.0463 15.6744 14.962 18.3482 14.1472 20.1898H13.5993V22.9864H14.8356V21.2811H18.6568V22.9864H19.8931V20.1898ZM25.892 20.7082L25.5689 19.6714C25.2176 19.917 24.5854 20.258 23.8127 20.258C22.7169 20.258 22.1409 19.2212 22.1409 17.2568H25.8639V16.5202C25.8639 13.5872 24.8945 12.4958 23.4053 12.4958C21.5087 12.4958 20.708 14.5285 20.708 17.3114C20.708 19.9715 21.8459 21.4039 23.6863 21.4039C24.5854 21.4176 25.33 21.1311 25.892 20.7082ZM11.4357 12.6323V16.3019H9.38461V12.6323H7.99377V21.2948H9.38461V17.4069H11.4357V21.2948H12.7985V12.6323H11.4357ZM31.0198 21.2948H32.523L29.9942 16.6975L32.2139 12.6186H30.8091L28.6736 16.6157V12.6323H27.2969V21.2948H28.6736V16.984L31.0198 21.2948ZM35.7683 21.4176C36.5831 21.4176 37.1451 21.1584 37.6227 20.7628L37.2996 19.7669C36.9765 20.0397 36.4707 20.2989 35.7964 20.2989C34.6865 20.2989 34.1527 19.0575 34.1527 16.9021C34.1527 14.7195 34.8551 13.6418 35.8526 13.6418C36.4145 13.6418 36.9484 13.9282 37.3277 14.242L37.5244 12.9733C37.131 12.7278 36.6674 12.5231 35.8807 12.5231C33.7874 12.5231 32.7197 14.2556 32.7197 16.9703C32.7057 19.917 33.8577 21.4176 35.7683 21.4176ZM17.828 20.1898H15.4537C16.1983 18.3482 16.2826 15.688 16.2826 13.86V13.71H17.828V20.1898ZM23.4194 13.6145C24.2202 13.6145 24.459 14.6922 24.459 16.1655H22.169C22.2674 14.624 22.5624 13.6145 23.4194 13.6145Z" fill="#F2FAFF"/>
<path d="M61 9.00362C60.0868 9.00362 59.1877 9.00362 58.2745 9.00362C58.2745 11.541 58.2745 14.0647 58.2745 16.6021C58.2745 16.6839 58.2745 16.8067 58.1622 16.8067C54.5937 17.9253 51.0253 19.0576 47.4569 20.1899C46.9652 20.3399 46.5016 20.5173 45.9959 20.64C46.2768 20.4081 46.6 20.2308 46.909 20.0262C48.2858 19.1122 49.6626 18.2118 51.0253 17.2978C52.5707 16.261 54.1301 15.2515 55.6755 14.2148C55.6896 12.4823 55.6615 10.7498 55.6896 9.01726C55.6896 6.01607 55.6896 3.02853 55.6896 0.0273438C53.1046 1.99176 50.5196 3.99709 47.9065 5.96151C47.0495 6.61631 46.1364 7.21655 45.3215 7.92592C44.8439 8.34881 44.3803 8.81264 44.0852 9.38559C43.8745 9.80848 43.8183 10.2996 43.8183 10.7634C43.8183 13.9829 43.8183 17.1887 43.8183 20.4081C43.8464 21.2266 44.605 21.936 45.4339 21.936C50.6179 21.936 55.8019 21.936 60.986 21.936C61 17.6252 61 13.3144 61 9.00362ZM50.8146 9.49472C51.0253 8.81263 51.6013 8.22604 52.3178 8.0487C52.5848 7.99413 52.8938 8.02141 53.1046 8.18511C53.3013 8.33517 53.3996 8.58072 53.3996 8.82628C53.4136 9.24917 53.231 9.65842 52.9781 9.99947C52.6831 10.3678 52.2616 10.6816 51.7699 10.7634C51.4609 10.818 51.1096 10.7225 50.927 10.4633C50.7022 10.1905 50.7163 9.80848 50.8146 9.49472Z" fill="#F2FAFF"/>
</g>
<defs>
<clipPath id="clip0_2001_200">
<rect width="61" height="23" fill="white"/>
</clipPath>
</defs>
</svg>
