<svg width="62" height="25" viewBox="0 0 62 25" fill="none" xmlns="http://www.w3.org/2000/svg">
<g clip-path="url(#clip0_2001_204)">
<path fill-rule="evenodd" clip-rule="evenodd" d="M45.8348 4.61961L47.9737 3.07056H40.8137V12.3557H47.9737V10.8067H42.8594V8.43391H47.2304V6.88485H42.8594V4.61961H45.8348Z" fill="#F2FAFF"/>
<path fill-rule="evenodd" clip-rule="evenodd" d="M35.4036 6.68823H32.9222V4.62206H36.8901L39.029 3.073H30.8765V12.3559H35.1403C37.5285 12.3559 38.9079 11.2919 38.9079 9.43855C38.9055 7.66068 37.666 6.68823 35.4036 6.68823ZM35.0634 10.8068H32.9246V8.23728H35.0634C36.3659 8.23728 36.9693 8.66288 36.9693 9.53007C36.9693 10.395 36.3193 10.8068 35.0634 10.8068Z" fill="#F2FAFF"/>
<path fill-rule="evenodd" clip-rule="evenodd" d="M53.7729 3.07056H49.8819V12.3557H51.9276V9.7267H53.7869C56.266 9.7267 57.8177 8.44993 57.8177 6.39748C57.8177 4.34733 56.2683 3.07056 53.7729 3.07056ZM53.724 8.17535H51.9113V4.61961H53.724C55.0427 4.61961 55.7557 5.258 55.7557 6.39748C55.7557 7.53925 55.0427 8.17535 53.724 8.17535Z" fill="#F2FAFF"/>
<path fill-rule="evenodd" clip-rule="evenodd" d="M27.3746 10.3491C26.8317 10.6374 26.2282 10.7907 25.6085 10.7907C23.7632 10.7907 22.4304 9.49791 22.4304 7.72004C22.4304 5.94217 23.7632 4.64938 25.6085 4.64938C26.2748 4.63337 26.9249 4.84616 27.4678 5.22599L28.9403 4.16201L28.8471 4.07049C27.9943 3.32685 26.848 2.94702 25.5456 2.94702C24.1359 2.94702 22.8475 3.41837 21.9178 4.26955C20.9882 5.15048 20.4616 6.38149 20.4919 7.65826C20.4756 8.94876 20.9882 10.1958 21.9178 11.1087C22.8941 12.0057 24.1965 12.5068 25.5293 12.477C27.0018 12.477 28.2879 11.9759 29.157 11.063L27.8406 10.1065L27.3746 10.3491Z" fill="#F2FAFF"/>
<path fill-rule="evenodd" clip-rule="evenodd" d="M14.0892 3.00879C14.462 3.48014 14.7719 3.99726 15.0352 4.54412L7.87522 9.72671L4.86725 7.87333V5.65386L7.85891 7.4935L14.0892 3.00879Z" fill="#F2FAFF"/>
<path fill-rule="evenodd" clip-rule="evenodd" d="M1.8127 7.72006C1.8127 7.61481 1.8127 7.52329 1.82901 7.41574L0.0163097 7.32422C0.0163097 7.44549 0 7.58278 0 7.70405C0 9.832 0.883051 11.7609 2.30898 13.1612L3.59511 11.9005C2.49538 10.8365 1.8127 9.36293 1.8127 7.72006Z" fill="#F2FAFF"/>
<path fill-rule="evenodd" clip-rule="evenodd" d="M7.85895 1.79398C7.96846 1.79398 8.06166 1.79398 8.16884 1.81L8.26203 0.0321301C8.13855 0.0321301 7.99875 0.0161133 7.87526 0.0161133C5.70608 0.0161133 3.73727 0.883311 2.31134 2.28135L3.59747 3.54211C4.6809 2.46211 6.20003 1.79398 7.85895 1.79398Z" fill="#F2FAFF"/>
<path fill-rule="evenodd" clip-rule="evenodd" d="M7.85895 13.6485C7.74945 13.6485 7.65858 13.6485 7.54907 13.6325L7.45587 15.4104C7.57936 15.4104 7.71916 15.4264 7.84264 15.4264C10.0118 15.4264 11.9806 14.5592 13.4066 13.1611L12.1204 11.9004C11.037 12.9941 9.53186 13.6485 7.85895 13.6485Z" fill="#F2FAFF"/>
<path fill-rule="evenodd" clip-rule="evenodd" d="M11.27 2.82583L12.8054 1.71609C11.4541 0.654402 9.73456 0 7.85895 0V1.77787C9.1311 1.79389 10.3077 2.17371 11.27 2.82583Z" fill="#F2FAFF"/>
<path fill-rule="evenodd" clip-rule="evenodd" d="M15.7342 7.72016C15.7342 7.24881 15.6876 6.79347 15.6107 6.33813L13.9215 7.56914C13.9215 7.61491 13.9215 7.67669 13.9215 7.72016C13.9215 9.46828 13.1456 11.0334 11.9224 12.1133L13.1479 13.4359C14.7253 12.0378 15.7342 9.9854 15.7342 7.72016Z" fill="#F2FAFF"/>
<path fill-rule="evenodd" clip-rule="evenodd" d="M7.8589 13.6487C6.07648 13.6487 4.48047 12.889 3.3784 11.6877L2.02936 12.889C3.4716 14.4541 5.54758 15.4265 7.85657 15.4265V13.6487H7.8589Z" fill="#F2FAFF"/>
<path fill-rule="evenodd" clip-rule="evenodd" d="M3.81413 3.32913L2.58858 2.00659C0.992559 3.42065 0 5.45708 0 7.72003H1.8127C1.8127 5.98792 2.58858 4.40683 3.81413 3.32913Z" fill="#F2FAFF"/>
<path fill-rule="evenodd" clip-rule="evenodd" d="M41.5267 15.5294V25H43.6144V21.1262H48.0576V25.0023H50.1452V15.5294H48.0576V19.4192H43.6144V15.5294H41.5267ZM37.9363 25H40.1334L36.0537 15.5294H33.9358L29.7791 25H31.8807L32.7195 23.094H37.1464L37.9363 25ZM33.3509 21.5129L34.9633 17.7146L36.4801 21.5129H33.3509ZM54.8214 21.1719H56.1169L59.3113 24.9862H62L57.7316 20.0874L61.4618 15.5157H59.0736L55.9748 19.5771H54.8214V15.5134H52.7338V24.984H54.8214V21.1719ZM22.8871 19.2179V17.1105H28.3416V15.5294H20.7995V25H25.1472C27.582 25 28.9893 23.9154 28.9893 22.0231C28.9893 20.2086 27.7241 19.2179 25.4175 19.2179H22.8871ZM22.8871 23.4189V20.799H25.068C26.396 20.799 27.0135 21.2337 27.0135 22.1169C27.0135 23.0002 26.3658 23.4349 25.068 23.4349H22.8871V23.4189Z" fill="#F2FAFF"/>
</g>
<defs>
<clipPath id="clip0_2001_204">
<rect width="62" height="25" fill="white"/>
</clipPath>
</defs>
</svg>
