<svg width="42" height="27" viewBox="0 0 42 27" fill="none" xmlns="http://www.w3.org/2000/svg">
<g clip-path="url(#clip0_2001_218)">
<path d="M38.9759 0.480677C39.7084 0.394555 40.4399 0.253357 41.1364 0C41.1286 0.899266 41.1384 1.79853 41.1315 2.6978C40.8751 2.9131 40.5739 3.06732 40.2534 3.15043C39.5102 3.34571 38.7136 3.29263 37.9987 3.60908C37.3993 3.86043 36.9884 4.4773 36.9184 5.13322C37.1205 4.975 37.2944 4.77672 37.5227 4.65555C38.6738 3.9816 40.3194 4.1929 41.1529 5.29645C41.6911 5.99844 41.8611 6.92675 41.829 7.80298C41.8067 8.62314 41.4997 9.45531 40.9023 10.0131C40.164 10.7341 39.1217 11.0245 38.1259 11.0556C37.1448 11.0826 36.1092 10.8853 35.3117 10.2614C34.6929 9.78377 34.2868 9.06376 34.0818 8.30469C33.8468 7.46451 33.8341 6.57926 33.8798 5.71204C33.9546 4.50835 34.2703 3.26159 35.0669 2.3433C36.0645 1.21571 37.5392 0.678956 38.9759 0.480677ZM37.51 6.47111C37.1963 6.56624 36.9845 6.87568 36.9398 7.20013C36.8903 7.55063 36.9175 7.93717 37.1195 8.23559C37.4916 8.74731 38.4125 8.68222 38.6622 8.07336C38.8292 7.63975 38.8263 7.09298 38.5427 6.71245C38.293 6.41403 37.8607 6.36296 37.51 6.47111ZM11.2677 3.31066C12.0779 3.11138 12.9735 3.20351 13.7011 3.63812C14.2927 3.9766 14.7241 4.55842 14.9815 5.19531C15.3565 6.13964 15.4177 7.20013 15.2379 8.19854C15.0786 9.03071 14.7075 9.85687 14.0528 10.3966C13.3825 10.9574 12.4781 11.1377 11.6349 11.0486C11.0783 10.9855 10.5401 10.7541 10.1078 10.3866C10.1107 11.5132 10.1097 12.6408 10.1097 13.7674C9.06156 13.7604 8.01241 13.7714 6.96423 13.7624C6.972 10.3255 6.97006 6.88669 6.9652 3.44986C7.79675 3.45386 8.62733 3.45486 9.45888 3.44885C9.54242 3.74527 9.63859 4.03868 9.71631 4.3371C10.1243 3.85342 10.6537 3.45687 11.2677 3.31066ZM10.6945 5.85724C10.5469 5.90531 10.4041 5.98042 10.2924 6.09258C10.2011 6.1837 10.0757 6.27784 10.0981 6.42604C10.101 6.93676 10.0893 7.44748 10.1039 7.9572C10.3983 8.47393 11.1385 8.63315 11.6145 8.28566C11.9428 8.04032 12.0905 7.60771 12.0963 7.20214C12.1128 6.78455 11.9953 6.33492 11.6854 6.04751C11.4183 5.80817 11.0277 5.7541 10.6945 5.85724ZM16.4173 3.44685C17.4654 3.45586 18.5127 3.45286 19.5608 3.44885C19.5637 4.266 19.5628 5.08315 19.5637 5.9003C20.0446 5.88628 20.5264 5.90131 21.0083 5.89329C21.0005 5.08315 21.0054 4.27402 21.0044 3.46488C22.0516 3.42983 23.1017 3.46688 24.1499 3.44685C24.1509 5.90131 24.1431 8.35676 24.1538 10.8112C23.1046 10.8262 22.0555 10.8152 21.0063 10.8172C21.0024 10.0051 21.0015 9.19294 21.0073 8.3808C20.5245 8.3818 20.0417 8.3818 19.5589 8.3818C19.5696 9.19294 19.555 10.0041 19.5667 10.8152C18.5165 10.8212 17.4654 10.8192 16.4153 10.8162C16.4241 8.35977 16.4192 5.90331 16.4173 3.44685ZM25.4332 3.46287C26.3172 3.44885 27.1992 3.45486 28.0832 3.46388C28.2503 3.47089 28.4203 3.42682 28.5845 3.47489C28.5602 4.28203 28.5816 5.09117 28.5728 5.8993C28.7603 5.8953 28.9488 5.8963 29.1372 5.8953C29.453 5.07715 29.7638 4.25599 30.099 3.44585C31.1141 3.47389 32.1293 3.45987 33.1444 3.44685C32.7675 4.53538 32.3595 5.6139 31.967 6.69743C31.9602 6.80658 32.0234 6.90372 32.0554 7.00486C32.511 8.27565 32.956 9.55144 33.4164 10.8202C32.3653 10.8152 31.3142 10.8342 30.2631 10.8112C29.9562 9.99907 29.6404 9.19094 29.3189 8.3858C29.0702 8.3838 28.8215 8.3828 28.5719 8.3868C28.5796 9.19694 28.5641 10.0071 28.5796 10.8162C27.5295 10.8282 26.4804 10.8192 25.4302 10.8202C25.437 8.36678 25.4351 5.91432 25.4332 3.46287Z" fill="#F2FAFF"/>
<path d="M3.44957 15.2746C3.50202 15.2425 3.55934 15.2235 3.61957 15.2195C16.4124 15.2205 29.2062 15.2215 42 15.2195C41.6921 16.3511 41.3346 17.4697 41.0121 18.5972C40.1844 21.3992 39.3412 24.1951 38.5242 27.0001C25.6838 26.9981 12.8414 27.0031 0 26.9971C0.0204001 26.8218 0.0884006 26.6596 0.133087 26.4913C1.21041 22.8572 2.29064 19.2251 3.36699 15.59C3.40099 15.4859 3.43597 15.3827 3.44957 15.2746Z" fill="#F2FAFF"/>
</g>
<defs>
<clipPath id="clip0_2001_218">
<rect width="42" height="27" fill="white"/>
</clipPath>
</defs>
</svg>
