<svg width="46" height="63" viewBox="0 0 46 63" fill="none" xmlns="http://www.w3.org/2000/svg">
<path d="M23 63L29.9282 44.25H16.0718L23 63Z" fill="#1C3A78"/>
<circle cx="23" cy="23" r="23" fill="white"/>
<g clip-path="url(#clip0_770_996)">
<path fill-rule="evenodd" clip-rule="evenodd" d="M23 4C33.4935 4 42 12.5065 42 23C42 33.4935 33.4935 42 23 42C12.5065 42 4 33.4935 4 23C4 12.5065 12.5065 4 23 4ZM23 6.10419C32.3313 6.10419 39.8958 13.6687 39.8958 23C39.8958 32.3313 32.3313 39.8958 23 39.8958C13.6687 39.8958 6.10419 32.3313 6.10419 23C6.10419 13.6687 13.6687 6.10419 23 6.10419Z" fill="#1C3A78"/>
<path fill-rule="evenodd" clip-rule="evenodd" d="M23 7.44727C31.5895 7.44727 38.5527 14.4104 38.5527 23C38.5527 31.5895 31.5895 38.5527 23 38.5527C14.4104 38.5527 7.44727 31.5895 7.44727 23C7.44727 14.4104 14.4104 7.44727 23 7.44727ZM22.277 26.4048L26.4366 26.3332V28.8979C25.9812 29.498 25.0103 30.1506 23.5931 30.1506C19.3749 30.1506 16.6078 27.3497 16.6078 22.9965C16.6078 18.1371 19.6112 15.8424 23.4919 15.8424C25.3141 15.8424 27.3726 16.5848 28.3175 17.5971L31.398 14.0636C29.8843 12.4085 26.3602 10.7805 22.8507 10.7805C15.4266 10.7805 10.871 16.2136 10.871 22.9965C10.871 30.353 15.4266 35.2124 23.5256 35.2124C26.4615 35.2124 30.2747 33.9638 32.367 31.8716V21.3429H22.277V26.4047V26.4048Z" fill="#1C3A78"/>
</g>
<defs>
<clipPath id="clip0_770_996">
<rect width="38" height="38" fill="white" transform="translate(4 4)"/>
</clipPath>
</defs>
</svg>
