<svg width="702" height="310" viewBox="0 0 702 310" fill="none" xmlns="http://www.w3.org/2000/svg">
<rect width="702" height="310" rx="16" fill="transparent"/>
<g opacity="0.4">
<mask id="mask0_2004_1725" style="mask-type:alpha" maskUnits="userSpaceOnUse" x="12" y="52" width="687" height="246">
<rect x="12" y="52.2899" width="686.042" height="245.257" rx="16" fill="#C4C4C4"/>
</mask>
<g mask="url(#mask0_2004_1725)">
<path fill-rule="evenodd" clip-rule="evenodd" d="M258.792 61.3316C454.566 61.3316 613.276 109.469 613.276 168.903C613.276 228.337 454.566 276.474 258.792 276.474C166.701 276.638 82.9381 265.996 19.9115 248.476C77.5498 260.101 147.924 266.978 223.85 266.978C419.624 266.978 578.334 221.624 578.334 165.628C578.334 109.632 419.624 64.2788 223.85 64.2788C198.051 64.2788 172.906 65.0974 148.74 66.571C183.356 63.1326 220.258 61.3316 258.792 61.3316Z" fill="#1478FD"/>
<path fill-rule="evenodd" clip-rule="evenodd" d="M305.85 57.3759C521.201 57.3759 695.782 110.354 695.782 175.765C695.782 241.177 521.201 294.154 305.85 294.154C204.55 294.335 112.41 282.622 43.081 263.341C106.483 276.135 183.895 283.703 267.413 283.703C482.765 283.703 657.345 233.789 657.345 172.161C657.345 110.534 482.765 60.6194 267.413 60.6194C239.035 60.6194 211.375 61.5204 184.793 63.1422C222.87 59.358 263.462 57.3759 305.85 57.3759Z" fill="#1478FD"/>
</g>
</g>
</svg>
