<svg width="35" height="35" viewBox="0 0 35 35" fill="none" xmlns="http://www.w3.org/2000/svg">
<circle cx="17.5" cy="17.5" r="17.5" fill="#FF0B1D"/>
<path d="M25.4814 15.7781C25.4814 14.7281 25.2564 13.6031 24.8064 12.7031C24.5064 12.3281 24.0564 12.0281 23.5314 11.9531C21.4314 11.7281 19.3314 11.6531 17.2314 11.7281C15.1314 11.7281 13.0314 11.8031 11.0064 11.9531C10.5564 12.0281 10.1814 12.1781 9.88137 12.4781C9.20637 13.0781 9.13137 14.2031 9.05637 15.0281C8.98137 16.6781 8.98137 18.2531 9.05637 19.9031C9.05637 20.4281 9.13137 20.8781 9.28137 21.4031C9.35637 21.7781 9.58137 22.1531 9.80637 22.4531C10.1064 22.7531 10.4814 22.9781 10.9314 23.0531C12.5814 23.2781 14.1564 23.3531 15.8064 23.2781C18.4314 23.2781 20.7564 23.2781 23.4564 23.0531C23.9064 22.9781 24.2814 22.7531 24.5814 22.4531C24.8064 22.2281 24.9564 22.0031 25.0314 21.7031C25.3314 20.8781 25.4064 20.0531 25.4064 19.1531C25.4814 18.7781 25.4814 16.2281 25.4814 15.7781ZM15.5064 19.6781V15.0281L19.9314 17.3531C18.7314 18.0281 17.0814 18.7781 15.5064 19.6781Z" fill="white"/>
</svg>
